# xmcd CD database file
#
# Track frame offsets:
#	150
#	15518
#	29982
#	48566
#	68189
#	84632
#	101118
#	113937
#	131162
#	146387
#	161573
#	178239
#	194405
#	210964
#	231836
#	249911
#	266720
#	283988
#
# Disc length: 4006 seconds
#
# Revision: 1
# Processed by: cddbd v1.5.1PL2 Copyright (c) Steve Scherf et al.
# Submitted via: jetAudio 5
#
DISCID=130fa412
DTITLE=Балаган Лимитед - Best
DYEAR=1900
DGENRE=
TTITLE0=Серёжа
TTITLE1=Проводы
TTITLE2=Подмосковные вечера
TTITLE3=Чтоб тебя
TTITLE4=Чё те надо
TTITLE5=Колечко
TTITLE6=Снег снежок
TTITLE7=Наивная
TTITLE8=Тик-так ходики
TTITLE9=Гроздья рябины
TTITLE10=Пчёлочка златая
TTITLE11=Потолок ледяной
TTITLE12=По вечерам
TTITLE13=Чуть не поверила
TTITLE14=Зима
TTITLE15=Не губи любовь
TTITLE16=Женский монастырь
TTITLE17=Иванушки
EXTD=
EXTT0=
EXTT1=
EXTT2=
EXTT3=
EXTT4=
EXTT5=
EXTT6=
EXTT7=
EXTT8=
EXTT9=
EXTT10=
EXTT11=
EXTT12=
EXTT13=
EXTT14=
EXTT15=
EXTT16=
EXTT17=
PLAYORDER=
